<svg width="26" height="32" viewBox="0 0 26 32" fill="none" xmlns="http://www.w3.org/2000/svg">
<path d="M0.332337 16.5307C0.129061 16.2061 0.129062 15.7939 0.332338 15.4693L9.66633 0.563361C9.86014 0.253857 10.2701 0.163445 10.5761 0.362719C10.8794 0.560251 10.9642 0.966842 10.7651 1.26914L6.461 7.80324C5.81679 8.78122 7.08963 9.87938 7.96265 9.09879L16.7603 1.23258C17.0355 0.986517 17.4596 1.01656 17.6974 1.29896C17.9301 1.5754 17.8948 1.98814 17.6185 2.22105L13.9349 5.3264C12.9934 6.12013 14.0398 7.58269 15.095 6.94785L24.7574 1.13466C25.0777 0.941931 25.4939 1.05104 25.6785 1.37613C25.8572 1.69071 25.7516 2.09038 25.4409 2.27569L6.29284 13.696C5.41467 14.2197 5.79569 15.5681 6.81809 15.5547L24.9155 15.319C25.2863 15.3142 25.5895 15.6135 25.5895 15.9843C25.5895 16.3518 25.2916 16.6497 24.9241 16.6497H6.78276C5.76284 16.6497 5.39736 17.9975 6.27757 18.5127L25.4352 29.7272C25.7483 29.9105 25.856 30.3113 25.6769 30.6268C25.4931 30.9505 25.0789 31.0595 24.7596 30.8683L14.8791 24.9509C13.818 24.3154 12.7748 25.7934 13.729 26.5803L17.6096 29.7808C17.8899 30.0119 17.9277 30.4274 17.6937 30.7054C17.4575 30.9859 17.0367 31.0171 16.7617 30.7743L7.98391 23.0247C7.10622 22.2498 5.84045 23.3553 6.49018 24.3293L10.7609 30.7314C10.962 31.0329 10.8782 31.4406 10.5745 31.6383C10.2694 31.837 9.8606 31.7469 9.66734 31.4383L0.332337 16.5307Z" fill="#111111"/>
</svg>
